<?xml version="1.0" encoding="utf-8"?>
<!-- Generator: Adobe Illustrator 18.0.0, SVG Export Plug-In . SVG Version: 6.00 Build 0)  -->
<!DOCTYPE svg PUBLIC "-//W3C//DTD SVG 1.1//EN" "http://www.w3.org/Graphics/SVG/1.1/DTD/svg11.dtd">
<svg version="1.1" id="Layer_1" xmlns="http://www.w3.org/2000/svg" xmlns:xlink="http://www.w3.org/1999/xlink" x="0px" y="0px"
	 viewBox="0 0 612 360" enable-background="new 0 0 612 360" xml:space="preserve">
<g>
	<defs>
		<path id="SVGID_1_" d="M463.35,142.196c-18.6,1.139-32.755,17.141-31.616,35.741c1.139,18.6,17.141,32.755,35.741,31.616
			c18.6-1.139,32.755-17.141,31.616-35.741C497.952,155.212,481.95,141.057,463.35,142.196z M466.787,196.828
			c-11.625,0.712-21.626-8.135-22.338-19.76c-0.712-11.625,8.135-21.626,19.76-22.338c11.625-0.712,21.627,8.135,22.339,19.76
			C487.259,186.115,478.412,196.116,466.787,196.828z"/>
	</defs>
	<clipPath id="SVGID_2_">
		<use xlink:href="#SVGID_1_"  overflow="visible"/>
	</clipPath>
	<polygon clip-path="url(#SVGID_2_)" fill="#FFFFFF" points="465.413,175.875 452.167,142.942 445.531,146.594 	"/>
	<polygon clip-path="url(#SVGID_2_)" fill="#FFFFFF" points="465.413,175.875 464.737,140.384 457.237,141.439 	"/>
	<polygon clip-path="url(#SVGID_2_)" fill="#FFFFFF" points="465.413,175.875 477.158,142.377 469.76,140.75 	"/>
	<polygon clip-path="url(#SVGID_2_)" fill="#FFFFFF" points="465.413,175.875 441.061,150.048 436.216,155.87 	"/>
	<polygon clip-path="url(#SVGID_2_)" fill="#FFFFFF" points="465.413,175.875 433.472,160.389 431.012,167.553 	"/>
	<polygon clip-path="url(#SVGID_2_)" fill="#FFFFFF" points="465.413,175.875 430.051,172.781 430.304,180.351 	"/>
	<polygon clip-path="url(#SVGID_2_)" fill="#FFFFFF" points="465.413,175.875 431.245,185.496 434.161,192.486 	"/>
	<polygon clip-path="url(#SVGID_2_)" fill="#FFFFFF" points="465.413,175.875 436.886,196.999 442.237,202.918 452.766,190.027 	"/>
</g>
<g>
	<path fill="#C9920E" d="M223.596,218.877c-0.584,3.56-3.045,5.338-7.381,5.338c-1.817,0-3.389-0.234-4.717-0.701l0.208-1.265
		c1.356,0.468,2.938,0.701,4.745,0.701c3.334,0,5.224-1.357,5.67-4.073l0.116-0.702c-1.744,0.469-3.253,0.702-4.527,0.702
		c-4.664,0-6.587-2.485-5.771-7.459c0.798-4.859,3.703-7.29,8.713-7.29c1.901,0,3.656,0.201,5.267,0.604L223.596,218.877z
		 M224.272,205.785c-1.321-0.225-2.638-0.337-3.948-0.337c-3.98,0-6.295,1.98-6.946,5.941c-0.666,4.056,0.859,6.083,4.577,6.083
		c1.349,0,2.856-0.253,4.522-0.759L224.272,205.785z"/>
	<path fill="#C9920E" d="M230.038,211.503c0.823-5.011,3.53-7.516,8.119-7.516s6.471,2.505,5.648,7.516
		c-0.821,5-3.526,7.501-8.115,7.501C231.119,219.004,229.235,216.503,230.038,211.503z M235.895,217.754
		c3.605,0,5.754-2.103,6.444-6.308c0.679-4.13-0.785-6.195-4.39-6.195s-5.748,2.065-6.426,6.195
		C230.832,215.651,232.289,217.754,235.895,217.754z"/>
	<path fill="#C9920E" d="M252.881,198.789l-3.3,20.088h-1.476l3.3-20.088H252.881z"/>
	<path fill="#C9920E" d="M268.162,217.993c-1.699,0.589-3.765,0.884-6.2,0.884c-4.579,0-6.449-2.556-5.609-7.669
		c0.775-4.72,3.495-7.08,8.159-7.08c1.461,0,2.907,0.234,4.337,0.702l0.993-6.041h1.475L268.162,217.993z M268.633,206.15
		c-1.341-0.506-2.779-0.758-4.315-0.758c-3.624,0-5.75,1.904-6.375,5.717c-0.706,4.298,0.753,6.448,4.377,6.448
		c1.536,0,3.046-0.184,4.53-0.549L268.633,206.15z"/>
	<path fill="#C9920E" d="M282.315,204.128c4.036,0,5.688,2.232,4.954,6.7c-0.052,0.319-0.117,0.651-0.192,0.997h-11.195
		c-0.634,3.858,1.09,5.788,5.173,5.788c1.677,0,3.205-0.234,4.583-0.703l-0.208,1.265c-1.379,0.469-2.907,0.702-4.583,0.702
		c-5.066,0-7.187-2.514-6.36-7.543C275.276,206.529,277.885,204.128,282.315,204.128z M276.098,210.505h9.805
		c0.507-3.428-0.757-5.142-3.791-5.142C278.834,205.363,276.829,207.077,276.098,210.505z"/>
	<path fill="#C9920E" d="M291.179,218.877l2.423-14.749h1.053l-0.127,1.882c2.089-1.255,4.037-1.882,5.845-1.882
		c3.587,0,5.125,1.55,4.616,4.649l-1.659,10.1h-1.475l1.667-10.142c0.36-2.191-0.785-3.287-3.436-3.287
		c-1.77,0-3.614,0.622-5.533,1.868l-1.899,11.561H291.179z"/>
	<path fill="#C9920E" d="M317.726,218.877l2.423-14.749h1.053l-0.149,1.854c1.71-1.236,3.446-1.854,5.207-1.854
		c2.322,0,3.715,0.674,4.176,2.022c1.918-1.349,3.747-2.022,5.488-2.022c3.297,0,4.677,1.634,4.14,4.902l-1.617,9.847h-1.476
		l1.617-9.847c0.393-2.389-0.572-3.582-2.895-3.582c-1.854,0-3.49,0.637-4.908,1.91l-1.892,11.519h-1.475l1.656-10.086
		c0.366-2.229-0.649-3.343-3.047-3.343c-1.741,0-3.387,0.637-4.936,1.91l-1.892,11.519H317.726z"/>
	<path fill="#C9920E" d="M344.887,211.503c0.823-5.011,3.53-7.516,8.118-7.516c4.59,0,6.472,2.505,5.648,7.516
		c-0.821,5-3.526,7.501-8.115,7.501C345.968,219.004,344.084,216.503,344.887,211.503z M350.744,217.754
		c3.605,0,5.753-2.103,6.444-6.308c0.678-4.13-0.785-6.195-4.391-6.195s-5.748,2.065-6.426,6.195
		C345.681,215.651,347.139,217.754,350.744,217.754z"/>
	<path fill="#C9920E" d="M365.433,201.74h1.039l-0.125,2.388h4.425l-0.208,1.265h-4.299l-1.529,9.312
		c-0.319,1.938,0.233,2.908,1.657,2.908h2.163l-0.207,1.264h-2.136c-2.397,0-3.378-1.324-2.943-3.975L365.433,201.74z"/>
	<path fill="#C9920E" d="M377.099,204.128l-2.423,14.749H373.2l2.423-14.749H377.099z M378.115,198.789l-0.277,1.687h-1.756
		l0.277-1.687H378.115z"/>
	<path fill="#C9920E" d="M381.398,211.503c0.823-5.011,3.53-7.516,8.118-7.516c4.59,0,6.472,2.505,5.648,7.516
		c-0.821,5-3.526,7.501-8.115,7.501C382.479,219.004,380.596,216.503,381.398,211.503z M387.256,217.754
		c3.605,0,5.753-2.103,6.444-6.308c0.678-4.13-0.785-6.195-4.391-6.195s-5.748,2.065-6.426,6.195
		C382.192,215.651,383.65,217.754,387.256,217.754z"/>
	<path fill="#C9920E" d="M399.187,218.877l2.423-14.749h1.053l-0.127,1.882c2.089-1.255,4.037-1.882,5.845-1.882
		c3.587,0,5.125,1.55,4.616,4.649l-1.659,10.1h-1.475l1.666-10.142c0.359-2.191-0.785-3.287-3.436-3.287
		c-1.77,0-3.614,0.622-5.533,1.868l-1.898,11.561H399.187z"/>
</g>
<path fill="#FFFFFF" d="M185.363,143.928h19.638c1.632,0,3.099,0.997,3.7,2.514l11.08,27.973l20.813-30.487h17.744
	c2.425,0,4.287,2.151,3.938,4.551l-6.208,42.778h-14.119l4.907-33.971h-0.131l-23.932,33.971h-10.849l-14.196-33.971h-0.13
	l-4.829,33.971h-14.121L185.363,143.928z"/>
<path fill="#FFFFFF" d="M270.832,143.929h19.602c1.653,0,3.137,1.013,3.74,2.551l10.941,27.936l20.947-30.487h17.681
	c2.455,0,4.335,2.183,3.972,4.61l-6.389,42.719h-14.117l5.059-33.971h-0.131l-24.083,33.971h-10.851l-14.045-33.971h-0.13
	l-4.98,33.971h-14.122L270.832,143.929z"/>
<path fill="#FFFFFF" d="M353.513,160.559c2.086-13.88,10.376-17.156,23.481-17.156h17.099c20.705,0,22.708,4.455,20.522,17.872
	H400.08l0.199-1.306c0.519-3.404-1.817-4.384-6.138-4.384h-15.847c-7.661,0-9.649,3.599-10.537,9.483l-0.77,5.101
	c-1.036,6.86,0.012,9.473,6.878,9.473h15.503c6.54,0,8.601-0.655,9.498-6.531h14.524l-0.68,4.441
	c-1.22,7.962-5.056,14.227-19.634,14.227h-23.402c-13.075,0-20.364-3.263-18.284-17.103L353.513,160.559z"/>
<path fill="#FFFFFF" d="M136.774,143.928h16.264c1.615,0,3.07,0.976,3.682,2.47l18.394,44.859h-16.147l-3.342-8.352h-29.429
	l-5.406,8.352h-16.213L136.774,143.928z M133.038,172.716h18.583l-6.946-17.788L133.038,172.716z"/>
<linearGradient id="SVGID_3_" gradientUnits="userSpaceOnUse" x1="459.8252" y1="189.9725" x2="499.006" y2="165.7162">
	<stop  offset="0.0123" style="stop-color:#D59F0F"/>
	<stop  offset="1" style="stop-color:#BB6B13"/>
</linearGradient>
<path fill="url(#SVGID_3_)" d="M498.864,180.499c0.483-3.402,0.449-6.934-0.17-10.494l8.431-4.992
	c-0.709-3.003-1.798-5.914-3.278-8.732l-9.745,1.656c-1.877-3.013-4.206-5.681-6.875-7.931l3.243-9.328
	c-2.084-1.565-5.803-3.599-8.181-4.531l0,0l0,0l-6.339,7.57l-19.502,32.463l5.583,2.818l-23.038,38.53c0,0-0.486,0.683-0.047,0.591
	c0.369-0.301,0.719-0.703,0.719-0.703l10.164-11.843c1.307,0.688,2.649,1.312,4.042,1.825l0.151,9.857
	c2.996,0.81,5.915,1.343,9.209,1.476l3.387-9.286c1.73-0.06,3.478-0.253,5.231-0.59c1.753-0.337,3.448-0.805,5.077-1.391
	l6.418,7.446c2.969-1.344,5.65-2.954,8.017-4.774l-3.354-9.298c2.623-2.359,4.855-5.112,6.619-8.145
	c0.019,0.006,9.75,1.562,9.75,1.562c1.347-2.911,2.406-5.845,3.047-8.815L498.864,180.499z M469.469,196.464
	c-3.847,0.739-7.649,0.378-11.087-0.856l17.249-20.099l-6.432-2.885l10.152-12.735c3.424,2.986,5.921,7.085,6.844,11.892
	C488.392,183.215,480.903,194.266,469.469,196.464z"/>
</svg>
