<?xml version="1.0" encoding="utf-8"?>
<!-- Generator: Adobe Illustrator 18.0.0, SVG Export Plug-In . SVG Version: 6.00 Build 0)  -->
<!DOCTYPE svg PUBLIC "-//W3C//DTD SVG 1.1//EN" "http://www.w3.org/Graphics/SVG/1.1/DTD/svg11.dtd">
<svg version="1.1" id="Layer_1" xmlns="http://www.w3.org/2000/svg" xmlns:xlink="http://www.w3.org/1999/xlink" x="0px" y="0px"
	 viewBox="0 84 612 624" enable-background="new 0 84 612 624" xml:space="preserve">
<path fill="#595959" d="M309.6,97.3C144.5,97.3,10.9,230.9,10.9,396s133.6,298.7,298.7,298.7S608.3,561.1,608.3,396
	S474.7,97.3,309.6,97.3z M388.5,394.8h-52.2c0,82.6,0,184.6,0,184.6h-76.5c0,0,0-100.8,0-184.6h-36.4v-65.6h36.4v-42.5
	c0-30.4,14.6-77.7,77.7-77.7h57.1v63.1c0,0-34,0-41.3,0s-15.8,3.6-15.8,18.2v38.9h58.3L388.5,394.8z"/>
</svg>
