<?xml version="1.0" encoding="utf-8"?>
<!-- Generator: Adobe Illustrator 18.0.0, SVG Export Plug-In . SVG Version: 6.00 Build 0)  -->
<!DOCTYPE svg PUBLIC "-//W3C//DTD SVG 1.1//EN" "http://www.w3.org/Graphics/SVG/1.1/DTD/svg11.dtd">
<svg version="1.1" id="Layer_1" xmlns="http://www.w3.org/2000/svg" xmlns:xlink="http://www.w3.org/1999/xlink" x="0px" y="0px"
	 viewBox="0 84 612 624" enable-background="new 0 84 612 624" xml:space="preserve">
<path fill="#595959" d="M306,97.3C140.9,97.3,7.3,230.9,7.3,396S140.9,694.7,306,694.7S604.7,561.1,604.7,396S471.1,97.3,306,97.3z
	 M202.8,576.9h-81.4v-244h81.4V576.9z M162.7,300.1L162.7,300.1c-27.9,0-44.9-18.2-44.9-42.5s18.2-42.5,46.1-42.5
	s44.9,18.2,44.9,42.5C207.6,280.6,190.6,300.1,162.7,300.1z M495.4,576.9L495.4,576.9H414V447c0-32.8-12.1-54.6-41.3-54.6
	c-21.9,0-35.2,14.6-41.3,29.1c-2.4,4.9-2.4,12.1-2.4,19.4v136h-81.4c0,0,1.2-221,0-244.1H329v34c10.9-17,30.4-40.1,72.9-40.1
	c53.4,0,93.5,35.2,93.5,109.3L495.4,576.9L495.4,576.9z"/>
</svg>
