<?xml version="1.0" encoding="utf-8"?>
<!-- Generator: Adobe Illustrator 18.0.0, SVG Export Plug-In . SVG Version: 6.00 Build 0)  -->
<!DOCTYPE svg PUBLIC "-//W3C//DTD SVG 1.1//EN" "http://www.w3.org/Graphics/SVG/1.1/DTD/svg11.dtd">
<svg version="1.1" id="Layer_1" xmlns="http://www.w3.org/2000/svg" xmlns:xlink="http://www.w3.org/1999/xlink" x="0px" y="0px"
	 viewBox="0 0 612 360" enable-background="new 0 0 612 360" xml:space="preserve">
<g>
	<defs>
		<path id="SVGID_1_" d="M463.838,141.556c-18.021-0.011-32.639,14.589-32.65,32.61s14.589,32.638,32.61,32.649
			c18.021,0.011,32.639-14.589,32.65-32.61S481.859,141.567,463.838,141.556z M463.894,194.491
			c-11.263-0.007-20.388-9.143-20.381-20.406c0.007-11.263,9.143-20.388,20.406-20.381c11.263,0.007,20.388,9.143,20.381,20.406
			C484.293,185.373,475.157,194.498,463.894,194.491z"/>
	</defs>
	<clipPath id="SVGID_2_">
		<use xlink:href="#SVGID_1_"  overflow="visible"/>
	</clipPath>
	<polygon clip-path="url(#SVGID_2_)" fill="#FFFFFF" points="463.819,174.185 453,141.608 446.377,144.736 	"/>
	<polygon clip-path="url(#SVGID_2_)" fill="#FFFFFF" points="463.819,174.185 465.285,139.89 457.983,140.46 	"/>
	<polygon clip-path="url(#SVGID_2_)" fill="#FFFFFF" points="463.819,174.185 441.856,147.804 436.832,153.134 	"/>
	<polygon clip-path="url(#SVGID_2_)" fill="#FFFFFF" points="463.819,174.185 433.914,157.332 431.112,164.099 	"/>
	<polygon clip-path="url(#SVGID_2_)" fill="#FFFFFF" points="463.819,174.185 429.872,169.088 429.664,176.41 	"/>
	<polygon clip-path="url(#SVGID_2_)" fill="#FFFFFF" points="463.819,174.185 430.265,181.432 432.662,188.353 	"/>
	<polygon clip-path="url(#SVGID_2_)" fill="#FFFFFF" points="463.819,174.185 435.023,192.872 439.834,198.903 450.767,187.09 	"/>
</g>
<path fill="#FFFFFF" d="M187.623,140.929h19.638c1.632,0,3.099,0.997,3.7,2.514l11.08,27.973l20.813-30.487h17.744
	c2.425,0,4.287,2.151,3.938,4.551l-6.208,42.778h-14.119l4.907-33.971h-0.131l-23.932,33.971h-10.849l-14.196-33.971h-0.13
	l-4.829,33.971h-14.121L187.623,140.929z"/>
<path fill="#FFFFFF" d="M273.092,140.93h19.602c1.653,0,3.137,1.013,3.74,2.551l10.941,27.936l20.947-30.487h17.681
	c2.455,0,4.335,2.183,3.972,4.61l-6.389,42.719h-14.117l5.059-33.971h-0.131l-24.083,33.971h-10.851l-14.045-33.971h-0.13
	l-4.98,33.971h-14.122L273.092,140.93z"/>
<path fill="#FFFFFF" d="M355.773,157.561c2.086-13.88,10.376-17.156,23.481-17.156h17.099c20.705,0,22.708,4.455,20.522,17.872
	H402.34l0.199-1.306c0.519-3.404-1.817-4.384-6.138-4.384h-15.847c-7.661,0-9.649,3.599-10.537,9.483l-0.77,5.101
	c-1.036,6.86,0.012,9.473,6.878,9.473h15.503c6.54,0,8.601-0.655,9.498-6.531h14.525l-0.68,4.441
	c-1.22,7.962-5.056,14.227-19.634,14.227h-23.402c-13.075,0-20.364-3.263-18.284-17.103L355.773,157.561z"/>
<g>
	<path fill="#FFFFFF" d="M223.441,215.974c-0.584,3.56-3.045,5.338-7.381,5.338c-1.817,0-3.389-0.234-4.717-0.701l0.208-1.265
		c1.356,0.468,2.938,0.701,4.745,0.701c3.334,0,5.224-1.357,5.67-4.073l0.116-0.702c-1.744,0.469-3.253,0.702-4.527,0.702
		c-4.664,0-6.587-2.485-5.771-7.459c0.798-4.859,3.703-7.29,8.713-7.29c1.901,0,3.656,0.201,5.267,0.604L223.441,215.974z
		 M224.118,202.882c-1.321-0.225-2.638-0.337-3.948-0.337c-3.98,0-6.295,1.98-6.946,5.941c-0.666,4.056,0.859,6.083,4.577,6.083
		c1.349,0,2.856-0.253,4.522-0.759L224.118,202.882z"/>
	<path fill="#FFFFFF" d="M229.883,208.6c0.823-5.011,3.53-7.516,8.119-7.516s6.471,2.505,5.648,7.516
		c-0.821,5-3.526,7.501-8.115,7.501C230.965,216.101,229.081,213.6,229.883,208.6z M235.74,214.851c3.605,0,5.754-2.103,6.444-6.308
		c0.679-4.13-0.785-6.195-4.39-6.195s-5.748,2.065-6.426,6.195C230.678,212.748,232.135,214.851,235.74,214.851z"/>
	<path fill="#FFFFFF" d="M252.727,195.886l-3.3,20.088h-1.476l3.3-20.088H252.727z"/>
	<path fill="#FFFFFF" d="M268.008,215.09c-1.699,0.589-3.765,0.884-6.2,0.884c-4.579,0-6.449-2.556-5.609-7.669
		c0.775-4.72,3.495-7.08,8.159-7.08c1.461,0,2.907,0.234,4.337,0.702l0.993-6.041h1.475L268.008,215.09z M268.479,203.247
		c-1.341-0.506-2.779-0.758-4.315-0.758c-3.624,0-5.75,1.904-6.375,5.717c-0.706,4.298,0.753,6.448,4.377,6.448
		c1.536,0,3.046-0.184,4.53-0.549L268.479,203.247z"/>
	<path fill="#FFFFFF" d="M282.161,201.225c4.036,0,5.688,2.232,4.954,6.7c-0.052,0.319-0.117,0.651-0.192,0.997h-11.195
		c-0.634,3.858,1.09,5.788,5.173,5.788c1.677,0,3.205-0.234,4.583-0.703l-0.208,1.265c-1.379,0.469-2.907,0.702-4.583,0.702
		c-5.066,0-7.187-2.514-6.36-7.543C275.122,203.626,277.731,201.225,282.161,201.225z M275.944,207.602h9.805
		c0.507-3.428-0.757-5.142-3.791-5.142C278.68,202.46,276.675,204.174,275.944,207.602z"/>
	<path fill="#FFFFFF" d="M291.024,215.974l2.423-14.749h1.053l-0.127,1.882c2.089-1.255,4.037-1.882,5.845-1.882
		c3.587,0,5.125,1.55,4.616,4.649l-1.659,10.1H301.7l1.667-10.142c0.36-2.191-0.785-3.287-3.436-3.287
		c-1.77,0-3.614,0.622-5.533,1.868l-1.899,11.561H291.024z"/>
	<path fill="#FFFFFF" d="M317.571,215.974l2.423-14.749h1.053l-0.149,1.854c1.71-1.236,3.446-1.854,5.207-1.854
		c2.322,0,3.715,0.674,4.176,2.022c1.918-1.349,3.747-2.022,5.488-2.022c3.297,0,4.677,1.634,4.14,4.902l-1.617,9.847h-1.476
		l1.617-9.847c0.393-2.389-0.572-3.582-2.895-3.582c-1.854,0-3.49,0.637-4.908,1.91l-1.892,11.519h-1.475l1.656-10.086
		c0.366-2.229-0.649-3.343-3.047-3.343c-1.741,0-3.387,0.637-4.936,1.91l-1.892,11.519H317.571z"/>
	<path fill="#FFFFFF" d="M344.732,208.6c0.823-5.011,3.53-7.516,8.118-7.516c4.59,0,6.472,2.505,5.648,7.516
		c-0.821,5-3.526,7.501-8.115,7.501C345.813,216.101,343.93,213.6,344.732,208.6z M350.59,214.851c3.605,0,5.753-2.103,6.444-6.308
		c0.678-4.13-0.785-6.195-4.391-6.195s-5.748,2.065-6.426,6.195C345.526,212.748,346.984,214.851,350.59,214.851z"/>
	<path fill="#FFFFFF" d="M365.278,198.837h1.039l-0.125,2.388h4.425l-0.208,1.265h-4.299l-1.529,9.312
		c-0.319,1.938,0.233,2.908,1.657,2.908h2.163l-0.207,1.264h-2.136c-2.397,0-3.378-1.324-2.943-3.975L365.278,198.837z"/>
	<path fill="#FFFFFF" d="M376.944,201.225l-2.423,14.749h-1.476l2.423-14.749H376.944z M377.961,195.886l-0.277,1.687h-1.756
		l0.277-1.687H377.961z"/>
	<path fill="#FFFFFF" d="M381.244,208.6c0.823-5.011,3.53-7.516,8.118-7.516c4.59,0,6.472,2.505,5.648,7.516
		c-0.821,5-3.526,7.501-8.115,7.501C382.325,216.101,380.441,213.6,381.244,208.6z M387.102,214.851
		c3.605,0,5.753-2.103,6.444-6.308c0.678-4.13-0.785-6.195-4.391-6.195s-5.748,2.065-6.426,6.195
		C382.038,212.748,383.496,214.851,387.102,214.851z"/>
	<path fill="#FFFFFF" d="M399.032,215.974l2.423-14.749h1.053l-0.127,1.882c2.089-1.255,4.037-1.882,5.845-1.882
		c3.587,0,5.125,1.55,4.616,4.649l-1.659,10.1h-1.475l1.666-10.142c0.359-2.191-0.785-3.287-3.436-3.287
		c-1.77,0-3.614,0.622-5.533,1.868l-1.898,11.561H399.032z"/>
</g>
<path fill="#FFFFFF" d="M139.034,140.929h16.264c1.615,0,3.07,0.976,3.682,2.47l18.394,44.859h-16.147l-3.342-8.352h-29.429
	l-5.406,8.352h-16.213L139.034,140.929z M135.298,169.717h18.583l-6.946-17.788L135.298,169.717z"/>
<path fill="#FFFFFF" d="M476.647,144.174l7.569-6.652l6.974,4.868l-3.702,9.59c1.616,1.721,3.015,3.593,4.205,5.569l10.168-0.944
	l2.787,8.041l-8.583,5.545c0.292,2.305,0.328,4.64,0.129,6.971l8.791,5.215l-2.476,8.142l-10.2-0.559
	c-0.561,1.012-1.168,2.002-1.843,2.967c-0.679,0.967-1.396,1.885-2.152,2.754l4.045,9.382l-6.79,5.136l-7.929-6.453
	c-2.115,0.993-4.324,1.763-6.586,2.282l-2.245,9.969l-8.513,0.16l-2.621-9.876c-2.261-0.427-5.253-0.976-8.19-2.601l9.5-9.5
	c2.326,0.83,6.118,0.424,8.365,0.024c11.003-1.958,18.335-12.464,16.377-23.467c-0.689-3.874-2.467-7.262-4.928-9.977
	l-11.044,11.165l6.627,3.848l-42.379,40.053c0,0-0.381,0.373-0.772,0.645c-0.445,0.058,0.094-0.585,0.094-0.585l29.684-37.521
	l-6.553-4.286l15.169-19.71l-1.922-0.315l2.299-11.916C473.125,142.59,476.647,144.174,476.647,144.174z"/>
</svg>
